<svg width="21" height="19" viewBox="0 0 21 19" fill="none" xmlns="http://www.w3.org/2000/svg">
<path fill-rule="evenodd" clip-rule="evenodd" d="M16.2947 18.5759L16.2787 18.5759H1.94704C1.058 18.5759 0.333496 17.8514 0.333496 16.9636V5.61521H20.3335V14.5212L20.3334 14.5373C20.2874 14.5275 20.2405 14.5225 20.1935 14.5225H17.3495C16.7599 14.5225 16.2801 15.0036 16.2801 15.5932V18.4372C16.2801 18.4843 16.285 18.5308 16.2947 18.5759ZM10.3342 17.8471C13.5546 17.8471 16.1814 15.2203 16.1814 11.9999C16.1814 8.77796 13.5546 6.15125 10.3342 6.15125C7.11233 6.15125 4.48558 8.778 4.48558 11.9999C4.48558 15.2203 7.11229 17.8471 10.3342 17.8471ZM10.3342 17.1804C7.47962 17.1804 5.15225 14.8532 5.15225 11.9999C5.15225 9.14525 7.47958 6.81792 10.3342 6.81792C13.1875 6.81792 15.5147 9.14529 15.5147 11.9999C15.5147 14.8531 13.1875 17.1804 10.3342 17.1804ZM10.3342 7.70442C7.962 7.70442 6.03875 9.62767 6.03875 11.9999C6.03875 14.3707 7.962 16.2939 10.3342 16.2939C12.705 16.2939 14.6282 14.3707 14.6282 11.9999C14.6282 9.62767 12.705 7.70442 10.3342 7.70442ZM6.91429 12.3333C6.73033 12.3333 6.58095 12.1839 6.58095 11.9999C6.58095 11.816 6.73033 11.6666 6.91429 11.6666H7.2855C7.46945 11.6666 7.61883 11.816 7.61883 11.9999C7.61883 12.1839 7.46945 12.3333 7.2855 12.3333H6.91429ZM8.15129 14.6528C8.0212 14.7829 7.80995 14.7829 7.67987 14.6528C7.54979 14.5227 7.54979 14.3115 7.67987 14.1814L7.94179 13.9195C8.07191 13.7894 8.28312 13.7894 8.4132 13.9195C8.54329 14.0495 8.54329 14.2608 8.4132 14.3909L8.15129 14.6528ZM12.5157 9.34554C12.6458 9.21546 12.857 9.21546 12.9871 9.34554C13.1172 9.47563 13.1172 9.68688 12.9871 9.81696L12.7252 10.0789C12.5951 10.209 12.3839 10.209 12.2538 10.0789C12.1237 9.94879 12.1237 9.73758 12.2538 9.60746L12.5157 9.34554ZM8.88612 12.3068C8.75604 12.1768 8.75604 11.9655 8.88612 11.8355C9.0162 11.7054 9.22741 11.7054 9.35754 11.8355L9.88162 12.3595L11.3095 10.9317C11.372 10.8692 11.4568 10.8341 11.5452 10.8341C11.6336 10.8341 11.7183 10.8692 11.7809 10.9317C11.8433 10.9942 11.8784 11.079 11.8784 11.1674C11.8784 11.2558 11.8433 11.3405 11.7809 11.4031L10.1173 13.0667C10.0864 13.0976 10.0496 13.1222 10.0092 13.1389C9.96874 13.1557 9.9254 13.1643 9.88162 13.1643C9.83785 13.1643 9.7945 13.1557 9.75406 13.1389C9.71361 13.1222 9.67687 13.0976 9.64591 13.0667L8.88612 12.3068ZM7.67987 9.81696C7.54979 9.68688 7.54979 9.47563 7.67987 9.34554C7.80995 9.21546 8.0212 9.21546 8.15129 9.34554L8.4132 9.60746C8.54329 9.73758 8.54329 9.94879 8.4132 10.0789C8.28312 10.209 8.07191 10.209 7.94179 10.0789L7.67987 9.81696ZM13.7527 11.6666C13.9367 11.6666 14.086 11.816 14.086 11.9999C14.086 12.1839 13.9367 12.3333 13.7527 12.3333H13.383C13.199 12.3333 13.0497 12.1839 13.0497 11.9999C13.0497 11.816 13.199 11.6666 13.383 11.6666H13.7527ZM10.6676 15.4184C10.6676 15.6023 10.5182 15.7517 10.3342 15.7517C10.1503 15.7517 10.0009 15.6023 10.0009 15.4184V15.0487C10.0009 14.8647 10.1503 14.7153 10.3342 14.7153C10.5182 14.7153 10.6676 14.8647 10.6676 15.0487V15.4184ZM12.9871 14.1814C13.1172 14.3115 13.1172 14.5227 12.9871 14.6528C12.857 14.7829 12.6458 14.7829 12.5157 14.6528L12.2538 14.3909C12.1237 14.2608 12.1237 14.0495 12.2538 13.9195C12.3839 13.7894 12.5951 13.7894 12.7252 13.9195L12.9871 14.1814ZM10.0009 8.57996C10.0009 8.396 10.1503 8.24662 10.3342 8.24662C10.5182 8.24662 10.6676 8.396 10.6676 8.57996V8.95117C10.6676 9.13513 10.5182 9.2845 10.3342 9.2845C10.1503 9.2845 10.0009 9.13513 10.0009 8.95117V8.57996ZM18.5282 1.7625H18.7212C19.609 1.7625 20.3335 2.487 20.3335 3.37483V4.94854H0.333496V3.37483C0.333496 2.487 1.058 1.7625 1.94704 1.7625H2.13875V2.84888C2.13875 3.43792 2.62037 3.91954 3.20941 3.91954H4.00883C4.59841 3.91954 5.07825 3.43846 5.07825 2.84888V1.7625H6.62208V2.84888C6.62208 3.43792 7.1037 3.91954 7.69275 3.91954H8.49216C9.08175 3.91954 9.56158 3.43846 9.56158 2.84888V1.7625H11.1054V2.84888C11.1054 3.43792 11.587 3.91954 12.1761 3.91954H12.9755C13.5651 3.91954 14.0449 3.43846 14.0449 2.84888V1.7625H15.5887V2.84888C15.5887 3.43792 16.0704 3.91954 16.6594 3.91954H17.4588C18.0484 3.91954 18.5282 3.43846 18.5282 2.84888V1.7625ZM3.20941 0H4.00883C4.23108 0 4.41158 0.18175 4.41158 0.404V2.84888C4.41158 3.07117 4.23108 3.25288 4.00883 3.25288H3.20941C2.98716 3.25288 2.80541 3.07117 2.80541 2.84888V0.404C2.80541 0.18175 2.98716 0 3.20941 0ZM16.6594 0H17.4588C17.6811 0 17.8616 0.18175 17.8616 0.404V2.84888C17.8616 3.07117 17.6811 3.25288 17.4588 3.25288H16.6594C16.4371 3.25288 16.2554 3.07117 16.2554 2.84888V0.404C16.2554 0.18175 16.4371 0 16.6594 0ZM12.1761 0H12.9755C13.1977 0 13.3782 0.18175 13.3782 0.404V2.84888C13.3782 3.07117 13.1977 3.25288 12.9755 3.25288H12.1761C11.9538 3.25288 11.7721 3.07117 11.7721 2.84888V0.404C11.7721 0.18175 11.9538 0 12.1761 0ZM7.69275 0H8.49216C8.71441 0 8.89491 0.18175 8.89491 0.404V2.84888C8.89491 3.07117 8.71441 3.25288 8.49216 3.25288H7.69275C7.4705 3.25288 7.28875 3.07117 7.28875 2.84888V0.404C7.28875 0.18175 7.4705 0 7.69275 0ZM16.9467 15.5932C16.9467 15.3709 17.1272 15.1892 17.3495 15.1892H20.1935C20.1162 15.3611 20.0044 15.5183 19.8607 15.662L17.4195 18.1044C17.2758 18.248 17.1175 18.3586 16.9467 18.4372V15.5932Z" fill="#616161"/>
</svg>
