<svg width="32" height="32" viewBox="0 0 32 32" fill="none" xmlns="http://www.w3.org/2000/svg">
<rect width="32" height="32" rx="16" fill="#778BEB"/>
<path d="M23.9638 19.0089C23.788 19.1635 23.6132 19.3192 23.4393 19.4753C24.7608 20.5572 25.9714 21.7678 27.0533 23.0893C27.2094 22.9154 27.3651 22.741 27.5197 22.5648C28.0129 21.9934 28.1844 20.852 27.7555 20.2051C27.3674 19.6365 26.8916 19.1607 26.3235 18.7731C25.6762 18.3442 24.5352 18.5157 23.9633 19.0089H23.9638ZM19.1526 27.9976C20.0774 27.932 21.0876 27.8354 22.0954 27.7665C22.2918 27.7529 22.4708 27.6845 22.5927 27.5739C23.894 26.3935 25.1338 25.1696 26.3268 23.8853C25.1833 22.5759 23.9527 21.3453 22.6433 20.2018C21.359 21.3948 20.1351 22.6346 18.9547 23.9359C18.8446 24.0578 18.7757 24.2364 18.7621 24.4332C18.6932 25.441 18.5962 26.4512 18.531 27.376C18.5015 27.7543 18.7738 28.0267 19.1521 27.9971L19.1526 27.9976Z" fill="#FDFDFD"/>
<path d="M18.6928 14.6804C19.9444 14.5548 20.8572 13.4383 20.7316 12.1867C20.606 10.9351 19.4896 10.0223 18.238 10.1478C16.9863 10.2734 16.0735 11.3899 16.1991 12.6415C16.3247 13.8931 17.4411 14.806 18.6928 14.6804Z" fill="#FDFDFD"/>
<path d="M4.42281 20.4372C4.85547 22.8873 7.02953 25.0609 9.47969 25.4941L9.48859 25.4955C11.1794 25.7767 12.9681 25.9145 14.9598 25.9164C15.7839 25.9155 16.5737 25.8911 17.3364 25.8428C17.3772 25.3502 17.4189 24.8434 17.4531 24.3423C17.4873 23.8506 17.6753 23.3931 17.9828 23.0547C19.1837 21.7305 20.4513 20.447 21.7502 19.2405L21.7544 19.2367L21.7586 19.233L22.5545 18.5059L22.5583 18.5022L22.5625 18.4984C22.6652 18.4061 22.7631 18.3184 22.8592 18.2336C22.5991 17.8628 22.338 17.4916 22.075 17.1184C21.1684 15.8406 19.4566 15.8012 18.6409 17.0748C18.5467 17.2211 18.4525 17.3673 18.3573 17.5136C17.8117 18.3531 16.652 18.3508 16.0862 17.5019C15.0461 15.9433 14.0195 14.3833 13.0558 12.8345C12.2594 11.552 10.6403 11.5867 9.74453 12.8852C8.48922 14.7133 7.19547 16.532 5.93969 18.3212C5.83516 17.2628 5.78312 16.15 5.78172 14.9594C5.78406 13.0698 5.91344 11.3772 6.17781 9.78531C6.325 8.95937 6.77828 8.13203 7.45516 7.45516C8.13203 6.77828 8.95937 6.32453 9.78578 6.17734C11.3777 5.91297 13.0698 5.78312 14.958 5.78125C16.847 5.78312 18.5397 5.91297 20.132 6.17734C20.958 6.32453 21.7853 6.77781 22.4622 7.45469C23.1391 8.13156 23.5928 8.95891 23.7395 9.78484C24.0039 11.3772 24.1337 13.0698 24.1356 14.957C24.1347 15.8322 24.1061 16.6647 24.0494 17.4644C24.4694 17.3041 24.9325 17.2159 25.3956 17.2159C25.5503 17.2159 25.7017 17.2258 25.8489 17.245C25.8934 16.51 25.9159 15.7497 25.9169 14.957C25.9145 12.9677 25.7767 11.1784 25.4959 9.48812L25.4945 9.47922C25.0614 7.02906 22.8878 4.855 20.4377 4.42234L20.4287 4.42094C18.7375 4.13969 16.9487 4.00234 14.9575 4C12.9672 4.00234 11.1784 4.14016 9.48859 4.42094L9.47969 4.42234C7.02953 4.85547 4.85547 7.02953 4.42281 9.47969L4.42141 9.48859C4.14016 11.1784 4.00234 12.9677 4 14.9594C4.00234 16.9502 4.14016 18.7394 4.42094 20.4287L4.42234 20.4377L4.42281 20.4372Z" fill="#FDFDFD"/>
</svg>
