<svg width="25" height="24" viewBox="0 0 25 24" fill="none" xmlns="http://www.w3.org/2000/svg">
<path d="M23.594 9.91355L13.8046 9.91309C13.3724 9.91309 13.022 10.2634 13.022 10.6957V13.823C13.022 14.2552 13.3724 14.6056 13.8046 14.6056H19.3174C18.7137 16.1722 17.587 17.4842 16.1496 18.3178L18.5002 22.387C22.2709 20.2062 24.5002 16.3799 24.5002 12.0965C24.5002 11.4866 24.4553 11.0506 24.3653 10.5597C24.297 10.1867 23.9732 9.91355 23.594 9.91355Z" fill="#344F47"/>
<path d="M12.4998 19.3042C9.80193 19.3042 7.44675 17.8302 6.18182 15.6489L2.11279 17.9943C4.1835 21.5831 8.06259 23.9998 12.4998 23.9998C14.6765 23.9998 16.7304 23.4138 18.4998 22.3924V22.3868L16.1491 18.3176C15.0739 18.9412 13.8297 19.3042 12.4998 19.3042Z" fill="#12B347"/>
<path d="M18.5 22.3927V22.3871L16.1494 18.3179C15.0741 18.9414 13.83 19.3044 12.5 19.3044V24.0001C14.6767 24.0001 16.7308 23.414 18.5 22.3927Z" fill="#0F993E"/>
<path d="M5.19566 11.9998C5.19566 10.67 5.55856 9.42589 6.18205 8.35071L2.11302 6.00537C1.08603 7.76914 0.5 9.81748 0.5 11.9998C0.5 14.1821 1.08603 16.2304 2.11302 17.9942L6.18205 15.6489C5.55856 14.5737 5.19566 13.3296 5.19566 11.9998Z" fill="#FFD500"/>
<path d="M12.4998 4.69566C14.259 4.69566 15.875 5.32078 17.1372 6.36061C17.4486 6.61711 17.9012 6.59859 18.1864 6.31336L20.4022 4.09758C20.7258 3.77395 20.7028 3.24422 20.3571 2.94431C18.2423 1.10967 15.4907 0 12.4998 0C8.06259 0 4.1835 2.41673 2.11279 6.00558L6.18182 8.35092C7.44675 6.16969 9.80193 4.69566 12.4998 4.69566Z" fill="#FF4B26"/>
<path d="M17.1374 6.36061C17.4488 6.61711 17.9015 6.59859 18.1866 6.31336L20.4024 4.09758C20.726 3.77395 20.7029 3.24422 20.3573 2.94431C18.2425 1.10963 15.491 0 12.5 0V4.69566C14.2592 4.69566 15.8752 5.32078 17.1374 6.36061Z" fill="#D93F21"/>
</svg>
