<svg width="24" height="24" viewBox="0 0 24 24" fill="none" xmlns="http://www.w3.org/2000/svg">
<path d="M11.9999 4.42773C9.69187 4.42773 7.81396 6.3055 7.81396 8.61367C7.81396 10.9218 9.69187 12.7995 11.9999 12.7995C14.3079 12.7995 16.1858 10.9217 16.1858 8.61372C16.1858 6.3055 14.3079 4.42773 11.9999 4.42773Z" fill="#FDFDFD"/>
<path d="M12 0C5.38312 0 0 5.38312 0 12C0 15.0615 1.15303 17.8583 3.04669 19.9807C3.45225 18.1998 4.383 16.5749 5.742 15.3091C6.69581 14.4207 7.81181 13.7558 9.01809 13.3424C7.45073 12.3505 6.40777 10.6016 6.40777 8.61361C6.40777 5.52998 8.91652 3.02142 12 3.02142C15.0835 3.02142 17.592 5.52998 17.592 8.61361C17.592 10.6007 16.55 12.349 14.9837 13.341C16.2903 13.7886 17.488 14.5316 18.4935 15.537C19.7219 16.7655 20.5701 18.3096 20.9524 19.9814C22.8468 17.859 24 15.0619 24 12C24 5.38312 18.6169 0 12 0Z" fill="#FDFDFD"/>
<path d="M4.27051 21.1708C6.3601 22.9349 9.05776 23.9998 12.0001 23.9998C14.9424 23.9998 17.6401 22.9347 19.7297 21.1708C19.5373 19.4226 18.7516 17.7836 17.4993 16.5313C16.0301 15.0621 14.0771 14.2529 12.0001 14.2529C8.04432 14.2529 4.69988 17.2707 4.27051 21.1708Z" fill="#FDFDFD"/>
</svg>
